<?xml version="1.0" encoding="utf-8"?>
<!-- Generator: Adobe Illustrator 21.1.0, SVG Export Plug-In . SVG Version: 6.00 Build 0)  -->
<svg version="1.1" xmlns="http://www.w3.org/2000/svg" xmlns:xlink="http://www.w3.org/1999/xlink" x="0px" y="0px"
	 viewBox="0 0 320 517.8" style="enable-background:new 0 0 320 517.8;" xml:space="preserve">
<style type="text/css">
	.st0{display:none;}
	.st1{fill:#E1CFF2;}
	.st2{fill:#C2B0D6;}
	.st3{fill:#F1F2DA;}
	.st4{fill:#A6A278;}
	.st5{fill:#273E7E;}
	.st6{fill:#FDF1AC;}
	.st7{fill:#909192;}
	.st8{fill:#EFEFEF;}
	.st9{fill:#B49F60;}
	.st10{fill:none;stroke:#435E9B;stroke-miterlimit:10;}
</style>
<g id="Layer_1" class="st0">
</g>
<g id="Layer_3">
	<rect x="-8" y="-11" class="st1" width="339" height="537"/>
</g>
<g id="Layer_4">
	<polygon class="st2" points="159.5,139.5 159.5,404.5 123,420 191.5,531.5 346.5,531.5 346.5,306.5 	"/>
</g>
<g id="Layer_2">
	<g id="XMLID_1_">
		<g id="XMLID_2_">
			<g>
				<path class="st3" d="M201.5,280.5c0,0,0,117,0,129c0,2.9-0.7,5.1-1.7,6.8c-36,3.5-67.4,1.2-80.6-0.1c-1-1.7-1.7-3.9-1.7-6.8
					c0-12,0-129,0-129s-1-41.6,26.6-71.5c6.2,0.4,17.1,0.8,30.7-0.1C202.5,238.8,201.5,280.5,201.5,280.5z M191.5,376.5v-22v-62h-62
					v62v22H191.5z"/>
				<path class="st4" d="M199.8,416.3c-3.3,5.6-10.3,6.2-10.3,6.2h-30h-30c0,0-7-0.6-10.3-6.3C132.4,417.5,163.8,419.8,199.8,416.3z
					"/>
				<rect x="129.5" y="354.5" class="st5" width="62" height="22"/>
				<rect x="129.5" y="292.5" class="st6" width="62" height="62"/>
				<path class="st7" d="M176.1,198c3,1.4,2.1,5.5,0.4,5.5c-0.2,0.1-0.4,0.1-0.5,0.1c-13.8-4.9-26.1-1.8-31.9,0.4
					c-0.4-0.2-0.9-0.3-1.6-0.5c-1.7,0-2.7-4.4,0.8-5.6c0.7-0.1,1.4-0.2,2.2-0.4c7.3-1.1,17.7-1.8,28,0v0c0,0,0,0,0.1,0
					C174.4,197.6,175.2,197.8,176.1,198C176.1,198,176.1,198,176.1,198z"/>
				<path class="st8" d="M173.5,207.5c0.4,0.4,0.9,0.9,1.3,1.4c-13.6,0.9-24.5,0.5-30.7,0.1c0.5-0.5,0.9-1,1.4-1.5
					c0-1.7,0.7-2.6-1.4-3.5c5.8-2.1,18.2-5.2,31.9-0.4C172.6,204.6,173.5,205.6,173.5,207.5z"/>
				<path class="st9" d="M159.5,139.5c15,0,14,5,14,5v0.6c-11.3-2.5-22.3-0.9-28,0.4v-1c0,0,0-0.1,0-0.2
					C145.5,143.4,146.3,139.5,159.5,139.5z"/>
				<path class="st8" d="M173.5,194.5c0,1.4,0,2.5,0,3c-10.3-1.8-20.7-1.1-28,0c0-0.5,0-1.5,0-2.9
					C150.7,193.1,162.1,191.5,173.5,194.5z"/>
				<path class="st9" d="M173.5,193.8c0,0.2,0,0.4,0,0.7c-11.4-3-22.8-1.4-28,0.1c0-1.2,0-2.6,0-4.2c5-2.9,22-3.9,28,0.1
					C173.5,191.7,173.5,192.9,173.5,193.8z"/>
				<path class="st5" d="M173.5,189.9c0,0.2,0,0.4,0,0.6c-6-4-23-3-28-0.1c0-8.1,0-20.3,0-21.8c5.9-1.1,17.3-2.5,28,0
					C173.5,170.3,173.5,181.8,173.5,189.9z"/>
				<path class="st5" d="M173.5,168.5c0,0,0,0.1,0,0.2c-10.7-2.5-22.1-1.1-28,0c0-0.1,0-0.1,0-0.1s1,0,1-1s-1-2-1-2v-12.7
					c5.2-1,13-3.3,28-0.3v13c0,0-1,1-1,2S173.5,168.5,173.5,168.5z"/>
				<path class="st5" d="M173.5,152.3v0.2c-15-3-22.8-0.7-28,0.3v-7.3c5.7-1.2,16.7-2.8,28-0.4V152.3z"/>
			</g>
			<g>
				<path class="st10" d="M145.5,152.8c5.2-1,13-3.3,28-0.3"/>
				<path class="st10" d="M145.5,168.6c5.9-1.1,17.3-2.5,28,0"/>
			</g>
		</g>
	</g>
</g>
</svg>
