<?xml version="1.0" encoding="utf-8"?>
<!-- Generator: Adobe Illustrator 21.1.0, SVG Export Plug-In . SVG Version: 6.00 Build 0)  -->
<svg version="1.1" xmlns="http://www.w3.org/2000/svg" xmlns:xlink="http://www.w3.org/1999/xlink" x="0px" y="0px"
	 viewBox="0 0 320 517.8" style="enable-background:new 0 0 320 517.8;" xml:space="preserve">
<style type="text/css">
	.st0{display:none;}
	.st1{fill:#08B2A3;}
	.st2{fill:#079181;}
	.st3{fill:#D3642B;}
	.st4{fill:#5C3D2D;}
	.st5{fill:#C4C4C4;}
	.st6{fill:none;stroke:#1A1A1A;stroke-width:2;stroke-miterlimit:10;}
	.st7{fill:none;stroke:#BC572A;stroke-width:2;stroke-miterlimit:10;}
	.st8{fill:none;stroke:#603813;stroke-width:2;stroke-miterlimit:10;}
	.st9{fill:none;stroke:#999999;stroke-width:2;stroke-miterlimit:10;}
	.st10{fill:#363739;}
</style>
<g id="Layer_1" class="st0">
</g>
<g id="Layer_3">
	<rect x="-2" y="-6" class="st1" width="324" height="524"/>
</g>
<g id="Layer_4">
	<polygon class="st2" points="175,124 160,144 160,440 126,454 216,523 340,523 343,259 	"/>
</g>
<g id="Layer_2">
	<g id="XMLID_2_">
		<g>
			<path class="st3" d="M186.5,258.5c4.7,3.7,16.3,11.8,16.2,33.1c-41.6,5.7-71,2.5-85.3,0c-0.3-4.7-0.4-28.2,22.1-37.2
				c0.5-1.1,1.7-1.6,2.1-3.6c8.9,2.6,23.9,3.6,37.6,0.6C180.1,253.7,182.2,256.1,186.5,258.5z"/>
			<path class="st4" d="M202.7,291.6c0,1.5-0.1,3.2-0.2,4.9c0,3.2-2.1,63.7-3.5,106.8c-37,11.1-65.2,4.4-77.6,0
				c-1.8-46.1-3.9-110.8-3.9-110.8s0-0.3-0.1-0.8C131.8,294.2,161.1,297.3,202.7,291.6z"/>
			<path class="st3" d="M199,403.3c-0.4,11.2-0.7,21.3-1,28.9c-29,8.8-65.6,2.5-75.5-0.1c-0.3-7.8-0.7-17.7-1.2-28.8
				C133.7,407.7,162,414.4,199,403.3z"/>
			<path class="st5" d="M198,432.2c-0.3,8.8-1,17.8-1,17.8s1,4-4,5c-4,1-39,3-64.5-0.5c-4-0.5-5.5-2.5-5-6c-0.2-0.6-0.5-6.8-1-16.4
				C132.4,434.7,156.8,439,198,432.2z"/>
			<path class="st3" d="M181.5,222.5c0.3,7-2,20-3,23c0,1.6-0.3,3.6,0.7,6c-13.7,3-28.7,2-37.6-0.6c0.4-1.7,0.2-4.4-1.1-9.4
				c-4.5-17.5,2.5-39.5,4.9-48.6c6.2,1.1,16.9,2.2,29.4,0.1C176,198,181,211,181.5,222.5z"/>
		</g>
		<g>
			<path class="st6" d="M145.4,192.9c6.2,1.1,16.9,2.2,29.4,0.1"/>
			<path class="st7" d="M141.6,250.9c8.9,2.6,23.9,3.6,37.6,0.6"/>
			<path class="st8" d="M117.4,291.7c14.3,2.5,43.7,5.6,85.3,0"/>
			<path class="st8" d="M121.4,403.3c12.4,4.4,40.6,11.1,77.6,0"/>
			<path class="st9" d="M122.5,432.1c9.8,2.6,42.5,7.9,75.5,0.1"/>
			<g id="XMLID_1_">
				<g>
					<path class="st10" d="M145.3,139c7.1,0.8,18.4,1.4,29.3-0.2c0.8,1.5,4.3,8.8-0.2,17.7c0,0.3,0,0.9,0,1.5
						c-9.4,2-20.6,0.9-28-0.3c0-0.1,0-0.1,0-0.2C144.5,154.5,142.5,148.5,145.3,139z"/>
					<path class="st10" d="M174.7,193c-12.4,2.1-23.1,1-29.4-0.1c0-0.1,0.1-0.2,0.1-0.4c0-5-3-10,1-34.8c7.5,1.2,18.6,2.3,28,0.3
						C176.5,170.5,174.6,192.7,174.7,193z"/>
					<path class="st10" d="M145.5,138.5v-11c0,0-1-4,2-4s25,0,25,0s2,0,2,4c0,2,0,11,0,11s0.1,0.1,0.2,0.3
						c-10.9,1.6-22.2,1-29.3,0.2C145.4,138.8,145.4,138.7,145.5,138.5z"/>
				</g>
				<g>
					<path class="st6" d="M145.3,139c7.1,0.8,18.4,1.4,29.3-0.2"/>
					<path class="st6" d="M146.5,157.7c7.5,1.2,18.6,2.3,28,0.3"/>
				</g>
			</g>
		</g>
	</g>
</g>
</svg>
