<?xml version="1.0" encoding="utf-8"?>
<!-- Generator: Adobe Illustrator 21.1.0, SVG Export Plug-In . SVG Version: 6.00 Build 0)  -->
<svg version="1.1" xmlns="http://www.w3.org/2000/svg" xmlns:xlink="http://www.w3.org/1999/xlink" x="0px" y="0px"
	 viewBox="0 0 320 517.8" style="enable-background:new 0 0 320 517.8;" xml:space="preserve">
<style type="text/css">
	.st0{display:none;}
	.st1{fill:#D1BA99;}
	.st2{fill:#C6AF91;}
	.st3{fill:#FFFFF0;}
	.st4{fill:#F9F9E8;}
	.st5{fill:#F2E7D3;}
	.st6{fill:#F7F5F7;}
	.st7{fill:#8CC63F;}
	.st8{fill:#41C4B1;}
	.st9{fill:#C14257;}
	.st10{fill:#BFA743;}
</style>
<g id="Layer_1" class="st0">
</g>
<g id="Layer_3">
	<rect x="-10" y="-10" class="st1" width="338" height="537"/>
</g>
<g id="Layer_4">
	<polygon class="st2" points="158.5,191.5 161.5,382.5 134.5,382.5 252,534.5 345.5,534.5 345.5,286 	"/>
</g>
<g id="Layer_2">
	<g id="XMLID_1_">
		<g id="XMLID_2_">
			<g>
				<path class="st3" d="M169.7,201.4c0,0.6-0.1,1.3,0.1,1.8c0.7,2,3.5,1.9,5.4,2.8c2.3,1,5.2,4.2,4.3,6.6c-0.3,0.6,1.1,0.8,3,1
					c1.4,0.2,8,2,8,5c0,3.6,0.7,3.8,1,4c1.8,0.8,4.4,1.9,6,3c1.6,1.1,1.6,2.5,0.5,4.1l-0.5,0v-0.1c-13.3,0.6-26.3,1-38.9,1
					c-11.4,0-22.5-0.3-33.1-1l-0.3-0.5c-1.2-1-0.9-3,0.2-4.1c1.1-1.1,2.7-1.5,4.2-1.8c-0.7-1.9,0-4.1,1.4-5.5
					c1.4-1.4,3.3-2.2,5.3-2.7c0.4-0.1,0.9-0.3,1.1-0.6c0.2-0.4,0.1-0.8,0.1-1.3c-0.1-1.6,1-3.1,2.4-3.6c0.4-0.2,0.9-0.3,1.2-0.6
					c0.2-0.3,0.3-0.6,0.4-1c0.6-2.4,2.8-3.9,5.1-4.8c2.3-0.8,4.7-1.2,6.9-2.4c1.4-0.8,2.8-2.1,2.9-3.8c0.1-1.7-1.9-3.2-3.3-2.3
					c-1.3,0.9-0.9,2.8-0.5,4.3c-1.4-0.3-2.4-1.9-2.2-3.3c0.2-1.5,1.2-2.7,2.6-3.3c1.3-0.6,2.9-0.7,4.3-0.5c2.6,0.3,9.3,2.5,10.8,4.7
					C169.2,197.8,169.7,199.6,169.7,201.4z"/>
				<path class="st4" d="M196.5,247c-28.3,4.4-56,2.3-69.9,0.7l-1.1-18.2c10.6,0.7,21.7,1,33.1,1c12.6,0,25.6-0.4,38.9-1v0.1
					L196.5,247z"/>
				<path class="st5" d="M196.5,247l-4.7,79.6l-0.1,1.7c-6.1,8.5-14.1,23.2-32.1,23.2c-12.2,0-22.3-11.9-28-20.5l-0.3-4.4l-4.7-78.9
					C140.4,249.3,168.2,251.4,196.5,247z"/>
				<path class="st6" d="M191.6,328.3l-3.1,53.2c0,0,1,10-27,11c-28-1-27-11-27-11l-3-50.5c5.7,8.6,15.8,20.5,28,20.5
					C177.5,351.5,185.6,336.8,191.6,328.3z"/>
			</g>
			<g>
			</g>
		</g>
	</g>
	<g>
		<g>
			<path class="st7" d="M150.9,206.5c0.1,0.6,0.3,1.1,0.8,1.4c0.4,0.3,0.8-0.4,0.4-0.6c-0.3-0.2-0.4-0.5-0.5-0.8
				C151.5,206,150.8,206,150.9,206.5L150.9,206.5z"/>
		</g>
	</g>
	<g>
		<g>
			<path class="st7" d="M180.4,223.5c0.8,0,1.5,0,2.3,0c0.5,0,0.5-0.8,0-0.8c-0.8,0-1.5,0-2.3,0
				C179.9,222.8,179.9,223.5,180.4,223.5L180.4,223.5z"/>
		</g>
	</g>
	<g>
		<g>
			<path class="st7" d="M144.5,245.3c0.4-0.2,0.9-0.3,1.3-0.5c0.5-0.2,0.3-0.9-0.2-0.7c-0.4,0.2-0.9,0.3-1.3,0.5
				C143.8,244.7,144,245.4,144.5,245.3L144.5,245.3z"/>
		</g>
	</g>
	<g>
		<g>
			<path class="st7" d="M130.7,226.6c0.2,0.2,0.5,0.4,0.7,0.6c0.4,0.3,0.9-0.2,0.5-0.5c-0.2-0.2-0.5-0.4-0.7-0.6
				C130.9,225.8,130.4,226.3,130.7,226.6L130.7,226.6z"/>
		</g>
	</g>
	<g>
		<g>
			<path class="st7" d="M164.9,228.8c0.2,0.1,0.4,0.3,0.6,0.4c0.4,0.3,0.8-0.4,0.4-0.6c-0.2-0.1-0.4-0.3-0.6-0.4
				C164.9,227.9,164.5,228.6,164.9,228.8L164.9,228.8z"/>
		</g>
	</g>
	<g>
		<g>
			<path class="st8" d="M161.7,220.9c0.6,0.3,1.2,0.5,1.9,0.6c0.5,0.1,0.7-0.7,0.2-0.7c-0.6-0.1-1.1-0.3-1.7-0.5
				C161.6,220,161.2,220.6,161.7,220.9L161.7,220.9z"/>
		</g>
	</g>
	<g>
		<g>
			<path class="st8" d="M164.1,205.2c0-0.2,0-0.3,0.1-0.5c0.3-0.4-0.2-0.9-0.5-0.5c-0.3,0.3-0.4,0.6-0.4,1
				C163.4,205.7,164.2,205.7,164.1,205.2L164.1,205.2z"/>
		</g>
	</g>
	<g>
		<g>
			<path class="st8" d="M138.9,211.3c0.1,0,0.2,0,0.2,0c0.4,0.3,0.8-0.4,0.4-0.6c-0.3-0.2-0.7-0.2-1,0
				C138.1,210.9,138.5,211.6,138.9,211.3L138.9,211.3z"/>
		</g>
	</g>
	<g>
		<g>
			<path class="st8" d="M140,223.9c0.1,0.1,0.2,0.2,0.3,0.3c0.3,0.3,0.9-0.2,0.5-0.5c-0.1-0.1-0.2-0.2-0.3-0.3
				C140.2,223,139.6,223.5,140,223.9L140,223.9z"/>
		</g>
	</g>
	<g>
		<g>
			<path class="st8" d="M168.6,239.2c0.5-0.1,1.1-0.2,1.6-0.3c0.5-0.1,0.3-0.8-0.2-0.7c-0.5,0.1-1.1,0.2-1.6,0.3
				C167.9,238.6,168.1,239.3,168.6,239.2L168.6,239.2z"/>
		</g>
	</g>
	<g>
		<g>
			<path class="st8" d="M188.6,239.4c0.2,0,0.3,0,0.5,0c0.5,0,0.5-0.8,0-0.8c-0.2,0-0.3,0-0.5,0
				C188.1,238.6,188.1,239.4,188.6,239.4L188.6,239.4z"/>
		</g>
	</g>
	<g>
		<g>
			<path class="st8" d="M153.4,246.8c0.5,0,0.5-0.8,0-0.8C152.9,246,152.9,246.8,153.4,246.8L153.4,246.8z"/>
		</g>
	</g>
	<g>
		<g>
			<path class="st8" d="M132.8,236.2c-0.1-0.4,0-0.8,0.1-1.2c0.1-0.5-0.6-0.7-0.7-0.2c-0.1,0.4-0.2,0.9-0.1,1.4
				C132.1,236.7,132.8,236.7,132.8,236.2L132.8,236.2z"/>
		</g>
	</g>
	<g>
		<g>
			<path class="st8" d="M173.4,210.9c0.5,0,0.5-0.8,0-0.8C172.9,210.1,172.9,210.9,173.4,210.9L173.4,210.9z"/>
		</g>
	</g>
	<g>
		<g>
			<path class="st8" d="M160.2,193.5c-0.3-0.1-0.6-0.2-0.8-0.4c-0.3-0.3-0.9,0.2-0.5,0.5c0.3,0.3,0.7,0.5,1.2,0.6
				C160.5,194.3,160.7,193.6,160.2,193.5L160.2,193.5z"/>
		</g>
	</g>
	<g>
		<g>
			<path class="st9" d="M151.6,217.2c0.1-0.4,0.2-0.8,0.4-1.1c0.2-0.4-0.4-0.8-0.6-0.4c-0.2,0.4-0.4,0.8-0.5,1.3
				C150.7,217.5,151.5,217.7,151.6,217.2L151.6,217.2z"/>
		</g>
	</g>
	<g>
		<g>
			<path class="st9" d="M132.8,217.9c0.7,0,1.4-0.1,2.1-0.2c0.5-0.1,0.5-0.8,0-0.8c-0.7,0.1-1.4,0.1-2.1,0.2
				C132.3,217.1,132.3,217.9,132.8,217.9L132.8,217.9z"/>
		</g>
	</g>
	<g>
		<g>
			<path class="st9" d="M163.2,197c0.1,0,0.2-0.1,0.4-0.1c0.5-0.2,0.3-0.9-0.2-0.7c-0.1,0-0.2,0.1-0.4,0.1
				C162.6,196.4,162.8,197.2,163.2,197L163.2,197z"/>
		</g>
	</g>
	<g>
		<g>
			<path class="st9" d="M156.7,202.7c-0.2-0.1-0.3-0.3-0.5-0.4c-0.4-0.3-0.8,0.4-0.4,0.6c0.2,0.1,0.3,0.3,0.5,0.4
				C156.7,203.6,157.1,203,156.7,202.7L156.7,202.7z"/>
		</g>
	</g>
	<g>
		<g>
			<path class="st9" d="M178.2,225.6c0.1,0,0.2,0.1,0.2,0.1c0.4,0.2,0.8-0.4,0.4-0.6c-0.1,0-0.2-0.1-0.2-0.1
				C178.1,224.7,177.7,225.4,178.2,225.6L178.2,225.6z"/>
		</g>
	</g>
	<g>
		<g>
			<path class="st9" d="M179.4,245.9c-0.8,0.1-1.6,0.2-2.4,0.4c-0.5,0.1-0.3,0.8,0.2,0.7c0.8-0.1,1.6-0.2,2.4-0.4
				C180.1,246.6,179.9,245.8,179.4,245.9L179.4,245.9z"/>
		</g>
	</g>
	<g>
		<g>
			<path class="st9" d="M189.4,232.9c0-0.2,0-0.4,0.1-0.6c0.2-0.4-0.5-0.8-0.6-0.4c-0.2,0.4-0.2,0.7-0.1,1.2
				C188.7,233.6,189.5,233.4,189.4,232.9L189.4,232.9z"/>
		</g>
	</g>
	<g>
		<g>
			<path class="st9" d="M194.1,224.9c0.2,0,0.4,0,0.6,0.1c0.4,0.2,0.8-0.5,0.4-0.6c-0.3-0.1-0.6-0.2-0.9-0.2
				C193.6,224.2,193.6,224.9,194.1,224.9L194.1,224.9z"/>
		</g>
	</g>
	<g>
		<g>
			<path class="st10" d="M161.4,213.1c0.7-0.1,1.4-0.1,2.1-0.2c0.5,0,0.5-0.8,0-0.8c-0.7,0.1-1.4,0.1-2.1,0.2
				C160.9,212.4,160.9,213.2,161.4,213.1L161.4,213.1z"/>
		</g>
	</g>
	<g>
		<g>
			<path class="st10" d="M153.1,224.9c0.2,0.3,0.4,0.6,0.6,0.9c0.3,0.4,0.9,0,0.6-0.4c-0.2-0.3-0.4-0.6-0.6-0.9
				C153.4,224.2,152.8,224.5,153.1,224.9L153.1,224.9z"/>
		</g>
	</g>
	<g>
		<g>
			<path class="st10" d="M153.1,239c0.5-0.1,0.9-0.1,1.4-0.1c0.5,0.1,0.5-0.7,0-0.8c-0.5-0.1-1.1,0-1.6,0.1
				C152.4,238.3,152.6,239.1,153.1,239L153.1,239z"/>
		</g>
	</g>
	<g>
		<g>
			<path class="st10" d="M144.1,236c0.5,0,0.5-0.8,0-0.8C143.6,235.3,143.6,236,144.1,236L144.1,236z"/>
		</g>
	</g>
	<g>
		<g>
			<path class="st10" d="M130.4,244.7c0.2-0.2,0.4-0.4,0.7-0.5c0.5-0.1,0.3-0.9-0.2-0.7c-0.4,0.1-0.8,0.3-1.1,0.7
				C129.5,244.6,130,245.1,130.4,244.7L130.4,244.7z"/>
		</g>
	</g>
	<g>
		<g>
			<path class="st10" d="M173.4,217.8c-0.1,0.1-0.2,0.3-0.2,0.4c-0.3,0.4,0.4,0.8,0.6,0.4c0.1-0.1,0.2-0.3,0.2-0.4
				C174.3,217.8,173.7,217.4,173.4,217.8L173.4,217.8z"/>
		</g>
	</g>
	<g>
		<g>
			<path class="st10" d="M181,235.3c0,0,0,0.1,0,0.1c0,0.5,0.8,0.5,0.8,0c0,0,0-0.1,0-0.1C181.8,234.8,181,234.8,181,235.3
				L181,235.3z"/>
		</g>
	</g>
	<g>
		<g>
			<path class="st10" d="M193.1,245c0.5,0,0.5-0.8,0-0.8C192.6,244.3,192.6,245,193.1,245L193.1,245z"/>
		</g>
	</g>
	<g>
		<g>
			<path class="st10" d="M143.1,210.4c0.5,0,0.5-0.8,0-0.8C142.6,209.6,142.6,210.4,143.1,210.4L143.1,210.4z"/>
		</g>
	</g>
</g>
</svg>
