<?xml version="1.0" encoding="utf-8"?>
<!-- Generator: Adobe Illustrator 21.1.0, SVG Export Plug-In . SVG Version: 6.00 Build 0)  -->
<svg version="1.1" id="Layer_1" xmlns="http://www.w3.org/2000/svg" xmlns:xlink="http://www.w3.org/1999/xlink" x="0px" y="0px"
	 viewBox="0 0 320 320" style="enable-background:new 0 0 320 320;" xml:space="preserve">
<style type="text/css">
	.st0{display:none;}
	.st1{fill:#F5F5F5;}
	.st2{fill:#823434;}
	.st3{fill:#EFB143;}
	.st4{fill:#F2DB8D;}
	.st5{fill:none;}
	.st6{fill:none;stroke:#F7931E;stroke-width:3;stroke-miterlimit:10;}
</style>
<g id="Layer_1_1_" class="st0">
	
		<image style="display:inline;overflow:visible;enable-background:new    ;" width="26" height="32" xlink:href="CC65FEEE.png"  transform="matrix(9.3462 0 0 9.375 38.5 10)">
	</image>
</g>
<g id="Layer_2">
	<g id="XMLID_1_">
		<g>
			<g id="XMLID_2_">
				<g>
					<path class="st1" d="M263.5,27.5l-100,129v126l41,16h-45h-45l40-16l1-126l-100-129h12l8.8,10.7l76.2,93.3c0,0,7,8,14,0
						l76.2-93.3l8.8-10.7C251.5,27.5,263.5,27.5,263.5,27.5z"/>
					<path class="st2" d="M242.7,38.2l-76.2,93.3c-7,8-14,0-14,0L76.3,38.2l0.1-0.1h85.4c-0.2,1.4-0.3,2.9-0.3,4.4
						c0,16.6,13.4,30,30,30s30-13.4,30-30c0-1.5-0.1-2.9-0.3-4.4h21.4L242.7,38.2z"/>
					<path class="st3" d="M221.2,38.1c0.2,1.4,0.3,2.9,0.3,4.4c0,16.6-13.4,30-30,30s-30-13.4-30-30c0-1.5,0.1-2.9,0.3-4.4
						c2.1-14.5,14.6-25.6,29.7-25.6S219.1,23.6,221.2,38.1z M193.7,43.2l11.4-2.8l-11.7,0.8l1.4-3.1l3.5-7.6l-5.3,7.6l-1.4,2.1
						l-1-2.1l-4.2-8.5l2.5,8.5l0.8,2.8l-11.5-2.5l10.9,4.4l-9.1,7.4l10.2-5.8l0.1,11.8l1.8-11.6l9.3,7.2L193.7,43.2z"/>
					<polygon class="st4" points="205.1,40.4 193.7,43.2 201.6,51.8 192.3,44.6 190.5,56.3 190.4,44.5 180.1,50.3 189.2,42.8 
						178.3,38.5 189.8,40.9 189,38.1 186.4,29.7 190.6,38.1 191.7,40.2 193.1,38.1 198.4,30.5 194.8,38.1 193.4,41.2 					"/>
				</g>
				<g>
					<line class="st5" x1="221.2" y1="38.1" x2="242.6" y2="38.1"/>
					<path class="st6" d="M221.2,38.1c0.2,1.4,0.3,2.9,0.3,4.4c0,16.6-13.4,30-30,30s-30-13.4-30-30c0-1.5,0.1-2.9,0.3-4.4
						c2.1-14.5,14.6-25.6,29.7-25.6S219.1,23.6,221.2,38.1z"/>
				</g>
			</g>
		</g>
	</g>
</g>
</svg>
