<?xml version="1.0" encoding="utf-8"?>
<!-- Generator: Adobe Illustrator 21.1.0, SVG Export Plug-In . SVG Version: 6.00 Build 0)  -->
<svg version="1.1" xmlns="http://www.w3.org/2000/svg" xmlns:xlink="http://www.w3.org/1999/xlink" x="0px" y="0px"
	 viewBox="0 0 320 517.8" style="enable-background:new 0 0 320 517.8;" xml:space="preserve">
<style type="text/css">
	.st0{display:none;}
	.st1{fill:#837D29;}
	.st2{fill:#726A21;}
	.st3{fill:#C1C0BF;}
	.st4{fill:#BB4500;}
	.st5{fill:#C6B697;}
	.st6{fill:#67563C;}
	.st7{fill:#9B7C4E;}
	.st8{fill:#241C37;}
</style>
<g id="Layer_1" class="st0">
</g>
<g id="Layer_3">
	<rect x="-9" y="-9" class="st1" width="334" height="534"/>
	<polygon class="st2" points="161.5,174.5 160.5,363.5 101.5,407.5 257.5,529.5 345.5,529.5 342.5,304.5 	"/>
</g>
<g id="Layer_2">
	<g id="XMLID_2_">
		<g id="XMLID_1_">
			<g>
				<path class="st3" d="M179.9,221.1c1.4,9.1,4,10.8,6.1,12.5c-20.5,3.9-30.5,3.9-49.7-0.6c2-1.6,4.2-3.9,5.4-12.1
					C147.6,221.5,161.6,222.6,179.9,221.1z"/>
				<path class="st4" d="M186,233.6c0.4,0.3,0.7,0.6,1,0.9c6,6,32,13,38,16c26,16,17,45,17,45L223.1,401
					c-58.9,11.1-105.7,4.4-124.6,0.6v0c0-0.1,0-0.1,0-0.1l-19-106c0,0-9-29,17-45c6-3,32-10,38-16c0.5-0.5,1.1-1,1.8-1.5
					C155.5,237.5,165.5,237.5,186,233.6z M202.3,311.5c2.9-49.9-40.3-51.9-43.8-52c-0.1,0-0.2,0-0.2,0c-3.5,0.1-46.7,2.1-43.8,52
					c0,3-2,22,6,54c3,2-1,2,6,2c1,1,1,2,4,3s14,2,27,2s25.8-1,28.8-2s3-2,4-3c7,0,3,0,6-2C204.3,333.5,202.3,314.5,202.3,311.5z"/>
				<path class="st5" d="M223.1,401l-0.1,0.5c0,0-1,6-6,7c-4.9,1-13.5,2.9-54.5,3v0c-0.6,0-1.2,0-1.8,0c-0.6,0-1.2,0-1.8,0v0
					c-41-0.1-49.6-2-54.5-3c-4.7-0.9-5.8-6.2-6-6.9C117.4,405.4,164.1,412,223.1,401z"/>
				<path class="st6" d="M179,199.5c5,3,2,5,0,6c0,0.1,0,0.3,0,0.4c-17,0.9-30.2,0.3-36.5-0.1c0-0.1,0-0.2,0-0.3c-2-1-5-3,0-6l0-0.2
					c7,0.8,19.9,1.6,36.6,0L179,199.5z"/>
				<path class="st7" d="M181,181.5c0.5,3.1-0.3,6.2-1.2,8.5l-0.7,9.3c-16.6,1.6-29.5,0.8-36.6,0l-0.7-9.3c-0.9-2.3-1.8-5.4-1.2-8.5
					c0-0.2,0.2-0.4,0.5-0.8l0-0.2c6.7-4.6,13.6-6,19.8-6c6.2-0.1,13.1,1.4,19.8,6l0,0.2C180.8,181.1,181,181.3,181,181.5z"/>
				<path class="st8" d="M179,205.9c0,6.6,0.4,11.5,0.9,15.2c-18.3,1.4-32.3,0.4-38.3-0.2c0.5-3.7,0.9-8.5,0.9-15.1
					C148.8,206.2,162,206.8,179,205.9z"/>
				<path class="st8" d="M158.5,259.5c3.5,0.1,46.7,2.1,43.8,52c0,3,2,22-6,54c-3,2,1,2-6,2c-1,1-1,2-4,3s-15.8,2-28.8,2s-24-1-27-2
					s-3-2-4-3c-7,0-3,0-6-2c-8-32-6-51-6-54c-2.9-49.9,40.3-51.9,43.8-52C158.3,259.5,158.4,259.5,158.5,259.5z"/>
			</g>
			<g>
			</g>
		</g>
	</g>
</g>
</svg>
